<?xml version="1.0" encoding="utf-8"?>
<!-- Generator: Adobe Illustrator 24.0.3, SVG Export Plug-In . SVG Version: 6.00 Build 0)  -->
<svg version="1.1" id="Layer_1" xmlns="http://www.w3.org/2000/svg" xmlns:xlink="http://www.w3.org/1999/xlink" x="0px" y="0px"
	 viewBox="0 0 10000 459.3" style="enable-background:new 0 0 10000 459.3;" xml:space="preserve">
<style type="text/css">
	.st0{fill-rule:evenodd;clip-rule:evenodd;fill:#8C045A;}
	.st1{fill:none;stroke:#8C045A;stroke-width:12;stroke-miterlimit:10;}
</style>
<title>nest-logo</title>
<path class="st0" d="M4883.6,42.1l-5.8-5.6l-2.5-2.6c-41.8-41.6-109.4-41.6-151.2,0l-6.8,6.9v0.7c-33.1,40.3-32.3,98.7,1.9,138.1
	l-0.3,0.3l3.4,3.4l0,0l10,10l-8.4,8.3c-41.6,41.8-41.4,109.4,0.3,151c40.6,40.4,105.8,41.6,147.8,2.7l0.1,0.1l1.1-1.1l0,0l0,0l10-10
	l0.1,0.1l20.8,20.8l60.8,60.8l0,0l33.4,33.4L5103.8,354l12.4-12.4l5.8,5.6l2.5,2.6c41.8,41.6,109.4,41.6,151.1,0l6.8-6.9v-0.7
	c33.1-40.3,32.2-98.6-2-138l0.3-0.2l-3.4-3.4l0,0l-10-10l8.3-8.3c41.7-41.7,41.7-109.2,0.1-150.9c-20-20.1-47.2-31.3-75.6-31.3
	c-22.9,0-45.8,7.4-83.2,40.2l-31.5,32.1l-82,83 M4757.6,67.1c23.4-23.1,61-23.1,84.4,0l4.3,4.1l4.1,4.1l-17,17.1l-67.5,67.5
	l-0.1,0.1l-9.9-9.9l0.1-0.1c-10.2-11.1-15.9-25.6-15.9-40.7C4740,93.5,4746.4,78.2,4757.6,67.1z M4840.4,321
	c-11.1,10.1-25.6,15.7-40.6,15.7c-33,0-59.7-26.7-59.7-59.7c0-15.8,6.3-31,17.5-42.2l3.5-3.5l4.8-4.8l0,0l72.9,72.8l11.7,11.6
	L4840.4,321z M4883.7,277.7l-11.7-11.6l-72.9-72.9l0.1-0.1l57.7-57.5l16.5-16.6l10.4-10.4l0.1,0.1l81.8,81.6l-0.2,0.2l2.8,2.8
	L4883.7,277.7z M5070.1,321.3l-71.5,71.4l-60.9-60.8l-20.8-21l84.4-84.3l54.8,54.8l26.9,26.9L5070.1,321.3z M5116.2,275L5116.2,275
	l-81.8-81.7l0.2-0.2l-2.8-2.8l84.3-84.3l11.7,11.6l72.9,72.9l-0.1,0.1l-57.7,57.5L5116.2,275z M5242.2,316.6
	c-23.4,23.1-61,23.1-84.4,0l-4.3-4.1l-4.1-4.2l0,0l84.6-84.6l0.1-0.1l9.9,9.9l-0.1,0.1c10.2,11.1,15.9,25.6,15.9,40.7
	C5259.8,290.2,5253.5,305.4,5242.2,316.6L5242.2,316.6z M5242.2,149l-3.5,3.4l-4.8,4.8l0,0l-72.8-72.9l-11-10.9
	c26.1-22.9,38-26.5,50-26.5c33,0,59.7,26.8,59.6,59.8C5259.7,122.6,5253.5,137.7,5242.2,149L5242.2,149z"/>
<g>
	<line class="st1" x1="5396.1" y1="190.5" x2="10000" y2="190.5"/>
	<line class="st1" x1="0" y1="190.5" x2="4603.9" y2="190.5"/>
</g>
</svg>
