
<svg id="Layer_1" data-name="Layer 1" xmlns="http://www.w3.org/2000/svg" viewBox="0 0 613.47 459.33">
  <defs>
    <style>.cls-1{fill:#f9f8f8;;fill-rule:evenodd;}</style>
  </defs>
  <title>nest-logo</title>
  <path class="cls-1" d="M205.87,54.77l-5.77-5.59-2.47-2.64a107.08,107.08,0,0,0-151.15,0l-6.77,6.93v.66a107,107,0,0,0,1.95,138.05l-.26.26,3.43,3.42h0l10,10-8.35,8.34A106.75,106.75,0,0,0,194.62,367.88l.07.08,1.09-1.09,0,0h0l10-10,.08.08,20.82,20.81,60.82,60.83,0,0L320.88,472,426,366.66l12.43-12.43,5.79,5.61,2.47,2.64a107.06,107.06,0,0,0,151.15,0l6.77-6.93v-.66a107,107,0,0,0-2-138l.26-.25-3.43-3.43h0l-10-10,8.35-8.34a106.71,106.71,0,0,0-75.49-182.2c-22.91,0-45.76,7.35-83.16,40.24L407.6,85l-82,83m.18.47M79.86,79.74a60,60,0,0,1,84.4,0l4.3,4.13L172.68,88l-17.05,17.07L88.11,172.58l-.08.08-9.92-9.92.09-.08A59.74,59.74,0,0,1,62.34,122,59.12,59.12,0,0,1,79.86,79.74Zm82.75,253.9A60.12,60.12,0,0,1,122,349.33,59.68,59.68,0,0,1,79.86,247.41l3.46-3.47,4.79-4.79h0L161,312l11.73,11.57Zm43.28-43.29-11.72-11.56-72.93-72.93.08-.08L179,148.3l16.46-16.63,10.39-10.38.07.08L287.69,203l-.23.23,2.77,2.78ZM392.28,334l-71.47,71.36-60.9-60.8-20.79-21,84.39-84.29,54.8,54.81L405.22,321Zm46.19-46.3,0,0L356.64,206l.23-.23L354.1,203l84.34-84.34,11.73,11.56,72.93,72.93-.08.08-57.66,57.48Zm126,41.6a60,60,0,0,1-84.41,0l-4.3-4.13L471.64,321h0l84.58-84.58.08-.08,9.92,9.92-.09.08A59.74,59.74,0,0,1,582,287,59.13,59.13,0,0,1,564.48,329.28Zm0-167.67L561,165.08l-4.79,4.79h0L483.37,97l-11-10.88c26.14-22.92,38-26.46,50-26.46a59.69,59.69,0,0,1,42.12,101.92Z" transform="translate(-15.43 -12.62)"/>
</svg>